<svg data-v-423bf9ae="" xmlns="http://www.w3.org/2000/svg" viewBox="0 0 195.54743166349454 60" class="font"><!----><!----><!----><g data-v-423bf9ae="" id="6e4d9fea-91c0-4cc8-99db-ec074a5b1d3f" fill="black" transform="matrix(3.649634917937024,0,0,3.649634917937024,-2.0437986998484803,4.452554942718638)"><path d="M5.22 8.86C4.28 8.86 3.93 8.22 3.93 7.01C3.93 5.82 4.28 5.14 5.22 5.14C5.92 5.14 6.36 5.36 6.92 5.70L7.56 3.78C7.04 3.36 6.08 2.95 4.73 2.95C2.28 2.95 0.56 4.24 0.56 7.01C0.56 9.95 2.34 11.05 4.79 11.05C6.33 11.05 7.15 10.51 7.78 10.19L7.11 8.18C6.48 8.57 6.01 8.86 5.22 8.86ZM14.32 3.21C13.83 5.99 12.98 8.20 12.98 8.20L11.42 3.21L7.85 3.21L10.72 10.79L14.15 10.79C14.15 10.79 15.99 6.13 16.65 3.21ZM22.25 0.90C22.95 0.90 23.51 1.19 23.90 1.46L24.54-0.46C24.02-0.88 23.06-1.22 21.71-1.22C19.57-1.22 18.02-0.15 18.02 2.21C18.02 2.51 18.05 2.83 18.07 3.22L17.05 4.33L17.00 5.29L18.20 5.29L18.20 5.70C18.20 7.08 18.10 10.79 18.10 10.79L21.45 10.79C21.42 9.23 21.36 7.04 21.32 5.29L23.48 5.29L23.76 3.21L21.27 3.21C21.25 2.76 21.25 2.45 21.25 2.35C21.25 1.46 21.42 0.90 22.25 0.90ZM29.37 3.21C29.58 5.82 29.33 7.22 28.90 8.40C28.90 3.75 23.98 2.95 23.98 2.95L23.28 6.27C23.28 6.27 26.38 6.87 26.38 9.56C26.38 12.15 24.09 13.24 20.69 13.24L21.41 15.22C27.29 15.22 31.77 10.14 31.77 3.21ZM35.55 9.27C35.55 8.29 34.75 7.49 33.77 7.49C32.77 7.49 31.98 8.29 31.98 9.27C31.98 10.26 32.77 11.05 33.77 11.05C34.75 11.05 35.55 10.26 35.55 9.27ZM44.46 4.93L45.64 4.93L45.72 3.21L42.91 3.40C42.28 3.12 41.51 2.95 40.60 2.95C38.09 2.95 36.54 4.17 36.54 5.92C36.54 6.92 37.06 7.70 37.97 8.19C37.46 8.68 36.99 9.32 36.99 10.11C36.99 10.50 37.07 10.82 37.23 11.07C36.76 11.47 36.25 12.08 36.25 12.89C36.25 14.35 37.53 15.22 40.50 15.22C43.69 15.22 45.85 13.99 45.85 12.11C45.85 10.35 44.90 9.35 43.11 9.35L39.93 9.35C39.47 9.35 39.26 9.25 39.26 8.93C39.26 8.83 39.27 8.74 39.31 8.64C39.70 8.71 40.14 8.75 40.60 8.75C43.13 8.75 44.65 7.63 44.65 5.92C44.65 5.57 44.58 5.24 44.46 4.93ZM39.63 6.05C39.63 5.28 39.86 4.79 40.56 4.79C41.30 4.79 41.58 5.29 41.58 6.05C41.58 6.72 41.36 7.32 40.63 7.32C39.93 7.32 39.63 6.80 39.63 6.05ZM39.52 12.04L42.38 12.04C42.83 12.04 43.11 12.22 43.11 12.68C43.11 13.37 42.08 13.65 40.61 13.65C39.09 13.65 38.36 13.34 38.36 12.60C38.36 12.36 38.42 12.14 38.51 11.93C38.84 12.00 39.19 12.04 39.52 12.04ZM53.52 8.39C52.86 8.74 51.94 9.13 50.93 9.13C49.92 9.13 49.69 8.39 49.69 7.69C51.51 8.18 53.90 7.50 53.90 5.52C53.90 3.92 52.68 2.95 50.50 2.95C48.06 2.95 46.34 4.24 46.34 7.01C46.34 9.95 48.12 11.05 50.55 11.05C52.08 11.05 53.38 10.74 54.14 10.19ZM50.86 4.75C51.27 4.75 51.49 4.96 51.49 5.46C51.49 6.79 50.26 6.79 49.64 6.65C49.69 5.66 50.02 4.75 50.86 4.75Z"></path></g><!----><!----></svg>